<?xml version="1.0" encoding="UTF-8"?>
<svg version="1.1" xmlns="http://www.w3.org/2000/svg" width="1024" height="1024">
<path d="M0 0 C337.92 0 675.84 0 1024 0 C1024 337.92 1024 675.84 1024 1024 C686.08 1024 348.16 1024 0 1024 C0 686.08 0 348.16 0 0 Z " fill="#C0FE71" transform="translate(0,0)"/>
<path d="M0 0 C0.83845459 -0.00671722 1.67690918 -0.01343445 2.54077148 -0.02035522 C5.29726181 -0.03926357 8.05350754 -0.04325633 10.81005859 -0.04541016 C12.74189348 -0.05184496 14.67372741 -0.05857383 16.6055603 -0.06558228 C20.65210221 -0.07753855 24.69855887 -0.08126499 28.74511719 -0.08007812 C33.89935591 -0.07987547 39.05303994 -0.10712943 44.2071476 -0.14162254 C48.19833829 -0.16400033 52.18939802 -0.16791229 56.18064499 -0.16685867 C58.07902302 -0.16920014 59.97740546 -0.17794049 61.87572098 -0.19352341 C77.49985289 -0.30973336 91.33938332 0.89248492 103.29833984 12.13818359 C111.74515019 21.12073244 113.93372284 31.04706518 113.66552734 43.04443359 C113.11485808 53.10831104 108.68120898 61.09385707 101.72412109 68.20068359 C98.20619253 71.27599696 94.65369948 73.5237775 90.33349609 75.29052734 C89.77154541 75.55019287 89.20959473 75.8098584 88.63061523 76.07739258 C80.91906923 79.21121597 72.94857049 78.61861245 64.77099609 78.47802734 C59.67662109 78.41615234 54.58224609 78.35427734 49.33349609 78.29052734 C49.33349609 91.16052734 49.33349609 104.03052734 49.33349609 117.29052734 C54.94349609 117.62052734 60.55349609 117.95052734 66.33349609 118.29052734 C86.95370261 119.95344722 108.04667293 124.74009837 127.33349609 132.29052734 C128.60459229 132.78262695 128.60459229 132.78262695 129.90136719 133.28466797 C152.12958418 141.98250035 172.807569 152.54193448 192.33349609 166.29052734 C195.82895635 164.65560546 197.89370974 162.82545063 200.52099609 159.97802734 C204.72617834 155.68322646 208.84032234 152.70646572 214.33349609 150.29052734 C214.90028076 150.03303711 215.46706543 149.77554688 216.05102539 149.51025391 C221.41240784 147.25720075 226.23594612 146.74646883 232.02099609 146.79052734 C232.89731689 146.79624756 233.7736377 146.80196777 234.67651367 146.80786133 C247.58056809 147.16001645 257.23887805 152.26643234 266.29833984 161.23583984 C270.28387084 165.53313542 273.03494008 169.91562111 275.33349609 175.29052734 C275.72537109 176.15677734 276.11724609 177.02302734 276.52099609 177.91552734 C280.35098533 189.11088049 278.4576983 200.47252655 274.33349609 211.29052734 C270.72308784 218.42355277 265.07872651 224.78659661 259.33349609 230.29052734 C258.67349609 230.29052734 258.01349609 230.29052734 257.33349609 230.29052734 C257.93935547 231.17611328 258.54521484 232.06169922 259.16943359 232.97412109 C280.65936509 264.62182623 296.36688276 299.36702871 303.45849609 337.10302734 C303.61745361 337.94373779 303.77641113 338.78444824 303.94018555 339.65063477 C306.69245911 355.06713495 307.66279287 370.24738547 307.59423828 385.88574219 C307.58350614 388.78781003 307.59421174 391.68925916 307.60693359 394.59130859 C307.61982434 410.27626879 306.47026943 425.55158528 303.14599609 440.91552734 C302.93241455 441.91422852 302.71883301 442.91292969 302.4987793 443.94189453 C292.01519696 491.46548578 270.42674149 534.85368783 237.57177734 570.82958984 C236.09365564 572.45474983 234.63222348 574.0952664 233.18896484 575.75146484 C202.98527847 610.25441468 160.63141452 634.44462971 117.33349609 648.29052734 C116.60324219 648.52610352 115.87298828 648.76167969 115.12060547 649.00439453 C50.8558139 669.50012651 -20.05553983 663.12583484 -80.66650391 634.29052734 C-81.3476123 633.97116211 -82.0287207 633.65179687 -82.73046875 633.32275391 C-109.97367632 620.48632269 -133.97212633 602.02603741 -155.66650391 581.29052734 C-156.41416016 580.58412109 -157.16181641 579.87771484 -157.93212891 579.14990234 C-162.4397513 574.78425231 -166.4075027 570.08233056 -170.32666016 565.18505859 C-171.86542368 563.28151307 -173.43532247 561.40264956 -175.03759766 559.55224609 C-182.42959628 551.00118209 -188.61871415 541.82403947 -194.66650391 532.29052734 C-195.10494629 531.60361816 -195.54338867 530.91670898 -195.99511719 530.20898438 C-223.49120745 486.69554872 -234.98189497 436.80397497 -234.91650391 385.85302734 C-234.91572845 384.8267926 -234.914953 383.80055786 -234.91415405 382.7432251 C-234.88196718 368.03632225 -234.45294565 353.86534464 -231.47900391 339.41552734 C-231.25833252 338.3369043 -231.03766113 337.25828125 -230.81030273 336.14697266 C-217.85002993 274.3036856 -184.68982454 216.61083097 -134.66650391 177.29052734 C-133.95107422 176.68466797 -133.23564453 176.07880859 -132.49853516 175.45458984 C-118.42840788 163.65062466 -101.95973738 152.84919342 -85.22900391 145.22802734 C-84.12081299 144.71671265 -84.12081299 144.71671265 -82.99023438 144.19506836 C-81.53162559 143.52283303 -80.07203061 142.8527323 -78.61132812 142.18505859 C-76.99906511 141.44349047 -75.39595995 140.68204915 -73.79541016 139.91552734 C-59.37583631 133.0769151 -44.13239116 128.13334619 -28.66650391 124.29052734 C-27.71130859 124.04971436 -26.75611328 123.80890137 -25.77197266 123.56079102 C-17.37758278 121.52448362 -8.97864547 120.20990379 -0.41650391 119.10302734 C0.88029297 118.92578125 2.17708984 118.74853516 3.51318359 118.56591797 C10.28327786 117.67312041 16.43002308 117.29052734 23.33349609 117.29052734 C23.33349609 104.42052734 23.33349609 91.55052734 23.33349609 78.29052734 C13.05801748 78.48682416 13.05801748 78.48682416 2.78393555 78.7409668 C-10.30906682 78.8660155 -20.86562139 76.20040241 -30.51025391 66.74365234 C-38.25382519 57.93393719 -42.34543834 47.78192088 -41.94775391 36.01708984 C-40.72825357 24.19471154 -34.91469142 15.5677309 -25.96337891 8.01318359 C-18.06433425 2.0889001 -9.72829481 -0.01134407 0 0 Z " fill="#D7D7D7" transform="translate(475.66650390625,181.70947265625)"/>
<path d="M0 0 C0.03867187 1.62808594 0.03867187 1.62808594 0.078125 3.2890625 C0.13443738 4.73441349 0.191784 6.17972444 0.25 7.625 C0.26417969 8.33785156 0.27835938 9.05070312 0.29296875 9.78515625 C0.52777325 14.90389444 1.65105189 17.92992803 5 22 C9.05366375 24.7024425 12.24531551 24.52736817 17 24 C20.48598656 22.6359183 21.65399855 21.57128495 23.58984375 18.375 C25.1760846 14.57856761 25.55002706 11.17848769 25.6875 7.125 C25.72166016 6.43664062 25.75582031 5.74828125 25.79101562 5.0390625 C25.87264091 3.35991387 25.9380157 1.67998832 26 0 C61.88740805 1.71106839 95.53375765 15.05975357 124 36.9375 C124.60610107 37.39809814 125.21220215 37.85869629 125.83666992 38.33325195 C127.28561535 39.48232757 128.65193662 40.73408423 130 42 C130 45 130 45 128.3203125 46.90234375 C127.59585937 47.57394531 126.87140625 48.24554688 126.125 48.9375 C121.93615488 52.83357637 120.14676846 55.15071744 119.6875 60.9375 C119.81961861 65.67615429 121.49441947 68.32069863 124.625 71.8125 C128.35963091 73.67981546 131.90950474 73.51684958 136 73 C141.3057733 70.92945432 145.12147076 66.0517638 149 62 C153.64144018 65.28627517 156.55649472 69.13687046 159.75 73.75 C160.27368164 74.50224854 160.79736328 75.25449707 161.33691406 76.02954102 C179.61088972 102.67397868 193.51199413 135.23237563 193 168 C191.26363281 168.02126953 191.26363281 168.02126953 189.4921875 168.04296875 C187.95308628 168.08989257 186.41402501 168.13813982 184.875 168.1875 C184.11445312 168.19330078 183.35390625 168.19910156 182.5703125 168.20507812 C176.72848518 168.43170074 174.08779368 169.80396256 170 174 C168.39367277 177.21265446 168.52068056 180.51521812 169 184 C171.01502889 187.75212276 172.45466142 189.63644095 176 192 C177.92744369 192.3626117 177.92744369 192.3626117 180.01171875 192.4140625 C181.14770508 192.47207031 181.14770508 192.47207031 182.30664062 192.53125 C183.09232422 192.5621875 183.87800781 192.593125 184.6875 192.625 C185.48478516 192.66367187 186.28207031 192.70234375 187.10351562 192.7421875 C189.06863475 192.83632494 191.0342854 192.91924632 193 193 C191.94879384 231.10622342 176.45918414 272.00622576 149 299 C147.95199219 297.93458984 147.95199219 297.93458984 146.8828125 296.84765625 C145.97273438 295.92855469 145.06265625 295.00945312 144.125 294.0625 C143.22007812 293.14597656 142.31515625 292.22945312 141.3828125 291.28515625 C137.35004394 287.41766509 134.13098944 287.61219009 128.70703125 287.640625 C125.71386719 287.81069935 125.71386719 287.81069935 122.875 290.375 C119.86158013 294.59378782 119.48319469 297.88163969 120 303 C122.12254482 308.30636206 126.9360932 312.10984694 131 316 C129.69343948 318.97526121 128.44941506 320.73477217 125.8671875 322.69921875 C125.23409668 323.18173096 124.60100586 323.66424316 123.94873047 324.16137695 C123.26439941 324.66499756 122.58006836 325.16861816 121.875 325.6875 C121.16359863 326.21496826 120.45219727 326.74243652 119.71923828 327.28588867 C112.49737011 332.53346175 104.90641331 336.88077678 97 341 C96.38882324 341.32339355 95.77764648 341.64678711 95.14794922 341.97998047 C74.30150942 352.97460562 49.83519279 361.35842395 26 361 C25.96132813 359.37191406 25.96132813 359.37191406 25.921875 357.7109375 C25.86556262 356.26558651 25.808216 354.82027556 25.75 353.375 C25.73582031 352.66214844 25.72164062 351.94929688 25.70703125 351.21484375 C25.47283149 346.10928901 24.40364576 343.01919871 21 339 C17.02084504 336.2869398 12.65240369 336.19508587 8 337 C4.42763326 338.9270028 2.30439298 341.08682105 1 345 C0.77202438 347.73289293 0.58331813 350.45042204 0.4375 353.1875 C0.37272461 354.31188477 0.37272461 354.31188477 0.30664062 355.45898438 C0.20077315 357.30578375 0.0999024 359.15286834 0 361 C-5.68386899 361.12815939 -10.96692386 360.72562946 -16.5625 359.75 C-17.3447998 359.61505127 -18.12709961 359.48010254 -18.93310547 359.34106445 C-42.67667744 355.08995829 -67.26580572 346.08032043 -87 332 C-87.65194336 331.53625977 -88.30388672 331.07251953 -88.97558594 330.59472656 C-91.18205093 329.0149968 -93.37456991 327.41778927 -95.5625 325.8125 C-96.26656982 325.30098389 -96.97063965 324.78946777 -97.69604492 324.26245117 C-98.35451416 323.7697876 -99.0129834 323.27712402 -99.69140625 322.76953125 C-100.28123291 322.33229736 -100.87105957 321.89506348 -101.47875977 321.44458008 C-103.21926938 319.7917803 -104.04985736 318.18834022 -105 316 C-104.37351562 315.39671875 -103.74703125 314.7934375 -103.1015625 314.171875 C-102.28429687 313.37265625 -101.46703125 312.5734375 -100.625 311.75 C-99.81289063 310.96109375 -99.00078125 310.1721875 -98.1640625 309.359375 C-95.12049093 306.04111286 -94.09535234 304.0488757 -93.6875 299.5625 C-94.09213173 294.9496983 -95.35334992 292.45501408 -98.8125 289.3984375 C-102.69190822 286.91838724 -106.57954117 287.05749977 -111 288 C-114.11170699 289.94348935 -116.51715915 292.31600306 -119 295 C-120.31590635 296.35053546 -121.64078414 297.69306167 -123 299 C-123.66 299 -124.32 299 -125 299 C-126.76210355 296.87079155 -128.39172379 294.74214087 -130 292.5 C-130.73367798 291.48220459 -130.73367798 291.48220459 -131.48217773 290.44384766 C-152.25044077 261.31268303 -165.69756694 228.97502113 -168 193 C-166.84242188 192.97421875 -165.68484375 192.9484375 -164.4921875 192.921875 C-162.95308872 192.86556651 -161.41402767 192.8082198 -159.875 192.75 C-159.11445313 192.73582031 -158.35390625 192.72164062 -157.5703125 192.70703125 C-152.30566496 192.48010679 -149.18920893 191.45980891 -145 188 C-142.67930191 184.36760298 -142.73830811 181.07014097 -143.38671875 176.9296875 C-144.760392 172.60742898 -148.39393147 170.40404569 -152 168 C-154.58885171 167.70008931 -157.09149082 167.49134775 -159.6875 167.375 C-160.7403418 167.31699219 -160.7403418 167.31699219 -161.81445312 167.2578125 C-163.54254655 167.1637666 -165.27123675 167.0808032 -167 167 C-167.26514286 158.87966523 -166.674934 151.43187895 -164.9375 143.5 C-164.71489502 142.46609131 -164.49229004 141.43218262 -164.26293945 140.36694336 C-158.19442416 113.38863758 -146.16569409 89.1820541 -129.03125 67.57421875 C-126.93091024 64.98298364 -126.93091024 64.98298364 -125 62 C-121.57719483 63.46582015 -119.43519517 65.38062255 -116.875 68.0625 C-113.56127006 71.75552761 -113.56127006 71.75552761 -109.01171875 73.203125 C-104.18506418 73.30046929 -100.83605986 73.27193341 -97 70 C-93.83044803 66.06538376 -93.46651202 62.97922113 -94 58 C-96.17695324 52.69367647 -100.92275095 48.90292487 -105 45 C-98.26717485 28.96107099 -68.78589471 17.5638652 -53.48828125 11.21069336 C-43.24664229 7.10085591 -32.76215035 4.37090613 -22 2 C-20.35644531 1.62875 -20.35644531 1.62875 -18.6796875 1.25 C-12.42109987 -0.03381285 -6.37714448 -0.22202824 0 0 Z " fill="#FEFEFE" transform="translate(499,390)"/>
<path d="M0 0 C0.83845459 -0.00671722 1.67690918 -0.01343445 2.54077148 -0.02035522 C5.29726181 -0.03926357 8.05350754 -0.04325633 10.81005859 -0.04541016 C12.74189348 -0.05184496 14.67372741 -0.05857383 16.6055603 -0.06558228 C20.65210221 -0.07753855 24.69855887 -0.08126499 28.74511719 -0.08007812 C33.89935591 -0.07987547 39.05303994 -0.10712943 44.2071476 -0.14162254 C48.19833829 -0.16400033 52.18939802 -0.16791229 56.18064499 -0.16685867 C58.07902302 -0.16920014 59.97740546 -0.17794049 61.87572098 -0.19352341 C77.49985289 -0.30973336 91.33938332 0.89248492 103.29833984 12.13818359 C111.74515019 21.12073244 113.93372284 31.04706518 113.66552734 43.04443359 C113.11485808 53.10831104 108.68120898 61.09385707 101.72412109 68.20068359 C98.20619253 71.27599696 94.65369948 73.5237775 90.33349609 75.29052734 C89.77154541 75.55019287 89.20959473 75.8098584 88.63061523 76.07739258 C80.91906923 79.21121597 72.94857049 78.61861245 64.77099609 78.47802734 C59.67662109 78.41615234 54.58224609 78.35427734 49.33349609 78.29052734 C49.33349609 91.16052734 49.33349609 104.03052734 49.33349609 117.29052734 C54.94349609 117.62052734 60.55349609 117.95052734 66.33349609 118.29052734 C86.95370261 119.95344722 108.04667293 124.74009837 127.33349609 132.29052734 C128.60459229 132.78262695 128.60459229 132.78262695 129.90136719 133.28466797 C152.12958418 141.98250035 172.807569 152.54193448 192.33349609 166.29052734 C195.82895635 164.65560546 197.89370974 162.82545063 200.52099609 159.97802734 C204.72617834 155.68322646 208.84032234 152.70646572 214.33349609 150.29052734 C214.90028076 150.03303711 215.46706543 149.77554688 216.05102539 149.51025391 C221.41240784 147.25720075 226.23594612 146.74646883 232.02099609 146.79052734 C232.89731689 146.79624756 233.7736377 146.80196777 234.67651367 146.80786133 C247.58056809 147.16001645 257.23887805 152.26643234 266.29833984 161.23583984 C270.28387084 165.53313542 273.03494008 169.91562111 275.33349609 175.29052734 C275.72537109 176.15677734 276.11724609 177.02302734 276.52099609 177.91552734 C280.35098533 189.11088049 278.4576983 200.47252655 274.33349609 211.29052734 C270.72308784 218.42355277 265.07872651 224.78659661 259.33349609 230.29052734 C258.67349609 230.29052734 258.01349609 230.29052734 257.33349609 230.29052734 C257.93935547 231.17611328 258.54521484 232.06169922 259.16943359 232.97412109 C280.65936509 264.62182623 296.36688276 299.36702871 303.45849609 337.10302734 C303.61745361 337.94373779 303.77641113 338.78444824 303.94018555 339.65063477 C306.69245911 355.06713495 307.66279287 370.24738547 307.59423828 385.88574219 C307.58350614 388.78781003 307.59421174 391.68925916 307.60693359 394.59130859 C307.61982434 410.27626879 306.47026943 425.55158528 303.14599609 440.91552734 C302.93241455 441.91422852 302.71883301 442.91292969 302.4987793 443.94189453 C292.01519696 491.46548578 270.42674149 534.85368783 237.57177734 570.82958984 C236.09365564 572.45474983 234.63222348 574.0952664 233.18896484 575.75146484 C202.98527847 610.25441468 160.63141452 634.44462971 117.33349609 648.29052734 C116.60324219 648.52610352 115.87298828 648.76167969 115.12060547 649.00439453 C50.8558139 669.50012651 -20.05553983 663.12583484 -80.66650391 634.29052734 C-81.3476123 633.97116211 -82.0287207 633.65179687 -82.73046875 633.32275391 C-109.97367632 620.48632269 -133.97212633 602.02603741 -155.66650391 581.29052734 C-156.41416016 580.58412109 -157.16181641 579.87771484 -157.93212891 579.14990234 C-162.4397513 574.78425231 -166.4075027 570.08233056 -170.32666016 565.18505859 C-171.86542368 563.28151307 -173.43532247 561.40264956 -175.03759766 559.55224609 C-182.42959628 551.00118209 -188.61871415 541.82403947 -194.66650391 532.29052734 C-195.10494629 531.60361816 -195.54338867 530.91670898 -195.99511719 530.20898438 C-223.49120745 486.69554872 -234.98189497 436.80397497 -234.91650391 385.85302734 C-234.91572845 384.8267926 -234.914953 383.80055786 -234.91415405 382.7432251 C-234.88196718 368.03632225 -234.45294565 353.86534464 -231.47900391 339.41552734 C-231.25833252 338.3369043 -231.03766113 337.25828125 -230.81030273 336.14697266 C-217.85002993 274.3036856 -184.68982454 216.61083097 -134.66650391 177.29052734 C-133.95107422 176.68466797 -133.23564453 176.07880859 -132.49853516 175.45458984 C-118.42840788 163.65062466 -101.95973738 152.84919342 -85.22900391 145.22802734 C-84.12081299 144.71671265 -84.12081299 144.71671265 -82.99023438 144.19506836 C-81.53162559 143.52283303 -80.07203061 142.8527323 -78.61132812 142.18505859 C-76.99906511 141.44349047 -75.39595995 140.68204915 -73.79541016 139.91552734 C-59.37583631 133.0769151 -44.13239116 128.13334619 -28.66650391 124.29052734 C-27.71130859 124.04971436 -26.75611328 123.80890137 -25.77197266 123.56079102 C-17.37758278 121.52448362 -8.97864547 120.20990379 -0.41650391 119.10302734 C0.88029297 118.92578125 2.17708984 118.74853516 3.51318359 118.56591797 C10.28327786 117.67312041 16.43002308 117.29052734 23.33349609 117.29052734 C23.33349609 104.42052734 23.33349609 91.55052734 23.33349609 78.29052734 C13.05801748 78.48682416 13.05801748 78.48682416 2.78393555 78.7409668 C-10.30906682 78.8660155 -20.86562139 76.20040241 -30.51025391 66.74365234 C-38.25382519 57.93393719 -42.34543834 47.78192088 -41.94775391 36.01708984 C-40.72825357 24.19471154 -34.91469142 15.5677309 -25.96337891 8.01318359 C-18.06433425 2.0889001 -9.72829481 -0.01134407 0 0 Z M-10.11767578 146.74804688 C-12.50806929 147.25680687 -14.90120693 147.70222493 -17.30712891 148.13037109 C-66.92436131 157.4401322 -117.5111073 188.20703592 -149.66650391 227.29052734 C-150.35099609 228.05236328 -151.03548828 228.81419922 -151.74072266 229.59912109 C-169.83359892 250.20406612 -183.80683097 274.78905062 -193.66650391 300.29052734 C-194.12452393 301.45310059 -194.12452393 301.45310059 -194.59179688 302.63916016 C-201.9788818 321.59395467 -206.63175307 341.63773137 -208.34228516 361.91162109 C-208.66650391 365.29052734 -208.66650391 365.29052734 -209.171875 367.11669922 C-210.3687861 372.376964 -209.95979503 377.97776945 -209.97900391 383.35302734 C-209.98162231 384.04927216 -209.98424072 384.74551697 -209.98693848 385.46286011 C-209.99152826 397.00961845 -209.22264504 408.38364597 -207.91650391 419.85302734 C-207.83800201 420.56975616 -207.75950012 421.28648499 -207.67861938 422.02493286 C-206.55150288 432.10321722 -204.45478697 441.54170754 -201.66650391 451.29052734 C-201.29165425 452.78440029 -200.92398221 454.28012647 -200.56884766 455.77880859 C-191.94139643 489.97425294 -173.32730322 523.25267709 -149.66650391 549.29052734 C-148.57457515 550.55417415 -147.48349849 551.81855755 -146.39306641 553.08349609 C-135.65028927 565.36965076 -123.94013331 576.77635363 -110.66650391 586.29052734 C-110.04598145 586.73944336 -109.42545898 587.18835938 -108.78613281 587.65087891 C-86.38662054 603.75422081 -62.18332772 616.44045214 -35.66650391 624.29052734 C-33.80445313 624.85513672 -33.80445313 624.85513672 -31.90478516 625.43115234 C-28.50342398 626.4339739 -25.09291578 627.37736596 -21.66650391 628.29052734 C-20.70615234 628.55607422 -19.74580078 628.82162109 -18.75634766 629.09521484 C12.24995704 637.02040998 48.99548105 637.59661237 80.33349609 631.29052734 C81.17928223 631.12423828 82.02506836 630.95794922 82.89648438 630.78662109 C93.67285413 628.59852571 104.16399455 625.53252014 114.64599609 622.22802734 C115.68997559 621.89971924 116.73395508 621.57141113 117.80957031 621.2331543 C122.87581291 619.58861696 127.65296301 617.80308443 132.36401367 615.31567383 C134.53422794 614.18604327 136.73988612 613.17498243 138.97021484 612.16943359 C157.5535912 603.69535512 174.69055752 593.44683118 190.33349609 580.29052734 C191.49091607 579.33724193 192.64847072 578.38412 193.80615234 577.43115234 C236.7678824 541.68323438 266.18263813 491.96886406 277.52099609 437.29052734 C277.67592529 436.55721191 277.83085449 435.82389648 277.99047852 435.06835938 C280.97266114 419.9220535 281.68351078 404.77535454 281.64916992 389.37792969 C281.6460065 386.42524328 281.66959491 383.4735601 281.69482422 380.52099609 C281.75065439 363.40072394 279.72432857 346.85761795 275.33349609 330.29052734 C275.04200684 329.16855957 275.04200684 329.16855957 274.74462891 328.02392578 C271.24479276 314.67851172 266.82019664 301.94648154 261.33349609 289.29052734 C260.85807373 288.18499512 260.85807373 288.18499512 260.37304688 287.05712891 C251.1925204 265.95476788 238.26088847 246.75024521 223.33349609 229.29052734 C222.67349609 228.51837891 222.01349609 227.74623047 221.33349609 226.95068359 C211.31761351 215.55002937 200.58287637 204.29418859 188.33349609 195.29052734 C187.17155442 194.41226018 186.01013663 193.53329969 184.84912109 192.65380859 C176.934306 186.7059345 168.85566878 181.33869333 160.33349609 176.29052734 C159.04765625 175.46875 159.04765625 175.46875 157.73583984 174.63037109 C137.37626946 161.94686849 113.8151075 153.78433787 90.45484924 148.75283813 C89.06808866 148.45061859 87.68276599 148.14170299 86.29917908 147.82527161 C69.78510671 144.05781023 53.62475585 142.7469891 36.70849609 142.85302734 C35.70524292 142.85540405 34.70198975 142.85778076 33.66833496 142.86022949 C18.80431205 142.91519169 4.46645174 143.64197371 -10.11767578 146.74804688 Z " fill="#020202" transform="translate(475.66650390625,181.70947265625)"/>
<path d="M0 0 C1.3610083 0.35288086 1.3610083 0.35288086 2.74951172 0.71289062 C8.58086971 2.25320931 14.2988367 4.03500636 20 6 C21.10915771 6.37415039 21.10915771 6.37415039 22.24072266 6.75585938 C42.11776505 13.56984439 60.39074099 24.20810308 77 37 C77.55381348 37.42539062 78.10762695 37.85078125 78.67822266 38.2890625 C93.81667279 50.10625094 108.0393758 64.21827539 119 80 C119.7981648 81.1067797 120.59634226 82.21355025 121.39453125 83.3203125 C132.26816729 98.71621188 141.34975311 115.99371869 147 134 C147.38212646 135.21768066 147.38212646 135.21768066 147.77197266 136.45996094 C151.2864023 147.85272924 154.1979972 159.20941213 156 171 C156.20496094 172.29421875 156.40992188 173.5884375 156.62109375 174.921875 C164.13117901 226.5732524 149.07496821 281.95249607 118.23828125 323.828125 C112.29923565 331.63675251 105.77928737 338.91768835 99 346 C98.52981445 346.49741699 98.05962891 346.99483398 97.57519531 347.50732422 C89.98801704 355.5028848 81.90046995 362.50066611 73 369 C72.43506836 369.41459473 71.87013672 369.82918945 71.28808594 370.25634766 C55.08313276 381.98471738 36.7334237 391.0776284 18 398 C16.48792969 398.56074219 16.48792969 398.56074219 14.9453125 399.1328125 C-18.78651432 410.49605389 -60.44009339 412.55270416 -95 404 C-95.90008789 403.78037598 -96.80017578 403.56075195 -97.72753906 403.33447266 C-124.595881 396.59113923 -148.4614166 385.03706896 -171 369 C-171.59554687 368.58234375 -172.19109375 368.1646875 -172.8046875 367.734375 C-189.72555574 355.72601689 -205.05256466 339.9384527 -217 323 C-217.61029053 322.15622803 -217.61029053 322.15622803 -218.23291016 321.29541016 C-243.22265229 286.56637528 -256.73398135 243.78631573 -256.5 201.0625 C-256.49890228 200.22603943 -256.49780457 199.38957886 -256.49667358 198.527771 C-256.41664499 177.0897628 -253.02311442 156.29419952 -246 136 C-245.77731445 135.34177246 -245.55462891 134.68354492 -245.32519531 134.00537109 C-241.75103199 123.55258175 -237.19790512 113.73794256 -232 104 C-231.38382812 102.83855469 -230.76765625 101.67710937 -230.1328125 100.48046875 C-222.36221786 86.3740988 -213.08243487 73.66674602 -202 62 C-200.86861934 60.67207659 -199.7431487 59.33908411 -198.625 58 C-180.42692004 37.23228375 -156.06454756 22.00843336 -131 11 C-129.989375 10.54109375 -128.97875 10.0821875 -127.9375 9.609375 C-118.88252693 5.63524793 -109.53485444 2.58532123 -100 0 C-99.09056641 -0.2484668 -98.18113281 -0.49693359 -97.24414062 -0.75292969 C-66.59529575 -8.69309929 -30.52123124 -8.17906742 0 0 Z M-84.5625 23.125 C-85.60535156 23.34945801 -86.64820313 23.57391602 -87.72265625 23.80517578 C-97.06741639 25.88799226 -106.06558468 28.56925262 -115 32 C-115.98758301 32.37415039 -115.98758301 32.37415039 -116.99511719 32.75585938 C-134.72075412 39.60660231 -153.81286028 50.10244198 -167 64 C-165.53772972 67.4221718 -163.63410368 69.52250488 -160.9375 72.0625 C-157.36378473 75.429418 -156.15952406 77.30904491 -155.6875 82.3125 C-156.05949371 86.7020258 -157.19347636 88.64776343 -160 92 C-164.20271433 94.53913991 -168.21327988 95.04537566 -173 94 C-176.06799484 92.0319541 -178.50472061 89.64239337 -181 87 C-182.31590635 85.64946454 -183.64078414 84.30693833 -185 83 C-185.66 83 -186.32 83 -187 83 C-188.96629351 85.35652714 -190.80896777 87.71849982 -192.625 90.1875 C-193.16479492 90.91710937 -193.70458984 91.64671875 -194.26074219 92.3984375 C-204.97822012 107.04629642 -213.55341601 123.02838092 -220 140 C-220.42023438 141.10085938 -220.84046875 142.20171875 -221.2734375 143.3359375 C-226.32704016 157.45539704 -230.12420346 172.91693698 -229 188 C-227.99839844 188.01417969 -226.99679687 188.02835938 -225.96484375 188.04296875 C-212.42971798 188.44400951 -212.42971798 188.44400951 -207 194 C-204.65295476 197.61836141 -204.73998394 200.91937811 -205.3828125 205.06640625 C-206.39998803 208.25312706 -208.45293851 209.94992612 -211 212 C-214.29960141 213.6498007 -217.99127884 213.38258361 -221.625 213.5625 C-222.42679687 213.60568359 -223.22859375 213.64886719 -224.0546875 213.69335938 C-226.0362511 213.79951457 -228.01810271 213.90026855 -230 214 C-227.8455569 250.04501859 -214.26973249 283.12393108 -193 312 C-192.33226562 312.91136719 -191.66453125 313.82273437 -190.9765625 314.76171875 C-189.66860808 316.52100955 -188.33837037 318.26373573 -187 320 C-183.57719483 318.53417985 -181.43519517 316.61937745 -178.875 313.9375 C-175.27588809 310.18220022 -173.49049619 308.83144379 -168.25 308.625 C-164.54538428 308.65180619 -162.34065666 308.96030738 -159.4375 311.3125 C-156.57891169 314.46427686 -156.08347166 316.11520043 -155.6875 320.3125 C-156.31395847 327.70470996 -161.88146732 332.14026954 -167 337 C-161.75516998 350.83876837 -134.92178191 362.10268166 -122.2265625 367.82421875 C-107.75573674 374.04000705 -92.53861768 378.8681219 -76.9375 381.125 C-75.81214844 381.29257812 -74.68679688 381.46015625 -73.52734375 381.6328125 C-69.63969882 382.03750644 -65.90602667 382.05989526 -62 382 C-61.96261719 380.90300781 -61.92523438 379.80601562 -61.88671875 378.67578125 C-61.82103347 377.22132143 -61.75458701 375.76689584 -61.6875 374.3125 C-61.66494141 373.59126953 -61.64238281 372.87003906 -61.61914062 372.12695312 C-61.34549601 366.67893759 -60.08245637 363.3227398 -56.375 359.1875 C-52.63199961 357.31599981 -49.09577279 357.35404623 -45 358 C-40.93059763 360.07169575 -38.58194487 361.72523341 -37 366 C-36.7047806 368.77394833 -36.49287769 371.4700511 -36.375 374.25 C-36.31699219 375.36761719 -36.31699219 375.36761719 -36.2578125 376.5078125 C-36.16394892 378.3381524 -36.08090282 380.16904143 -36 382 C3.57128984 380.03498732 38.75927722 364.05269811 69 339 C67.53772972 335.5778282 65.63410368 333.47749512 62.9375 330.9375 C59.13027936 327.35058869 58.09588006 325.48614089 57.75 320.125 C57.79896877 316.31942721 58.58791205 314.03744409 61 311 C65.49369507 308.00420329 69.742281 308.04339723 75 309 C78.1449714 310.92926817 80.45475901 313.35810429 83 316 C84.65086064 317.35285428 86.31429123 318.69082412 88 320 C102.4434349 303.21910099 113.37437196 284.76951683 121 264 C121.66322266 262.21335937 121.66322266 262.21335937 122.33984375 260.390625 C127.68523247 245.24806487 130.55739687 230.04436328 131 214 C129.83082031 213.97421875 128.66164063 213.9484375 127.45703125 213.921875 C125.90881774 213.86557633 124.3606421 213.80822938 122.8125 213.75 C122.04357422 213.73582031 121.27464844 213.72164062 120.48242188 213.70703125 C115.42342234 213.48990681 112.69863169 212.75553371 109 209 C106.73336126 205.97781502 106.52853685 202.77684401 106.60546875 199.03515625 C107.31352183 195.38272403 109.37534632 193.56216192 112 191 C115.29960141 189.3501993 118.99127884 189.61741639 122.625 189.4375 C123.42679688 189.39431641 124.22859375 189.35113281 125.0546875 189.30664062 C127.0362511 189.20048543 129.01810271 189.09973145 131 189 C131.11875639 182.97311333 130.80227414 177.36705482 129.75 171.4375 C129.54540161 170.27033447 129.54540161 170.27033447 129.33666992 169.07958984 C123.54332259 137.0159036 109.60585576 107.49423753 88 83 C83.23834515 87.00704856 83.23834515 87.00704856 78.75 91.3125 C75.47359357 94.47189192 71.61471944 94.39071957 67.29296875 94.35546875 C63.36442969 93.74644481 61.67517987 91.87581836 59 89 C57.75614813 85.2684444 57.48224965 81.8757312 58 78 C60.65067891 72.80466933 64.80961894 68.97850786 69 65 C57.21180997 52.42593063 42.25745503 44.338754 26.91650391 36.93920898 C25.61925514 36.30347446 24.32991818 35.65137975 23.04833984 34.98461914 C18.23871415 32.49093664 13.4019044 30.60260442 8.25 28.9375 C7.46069092 28.68000977 6.67138184 28.42251953 5.8581543 28.15722656 C-7.69161953 23.79498172 -21.66139178 20.41475068 -36 21 C-36.02578125 22.00160156 -36.0515625 23.00320313 -36.078125 24.03515625 C-36.59006788 37.5820834 -36.59006788 37.5820834 -41 43 C-45.17562223 45.57028848 -49.22278897 45.69952019 -54 45 C-57.60002512 42.85530418 -59.51385554 40.87800787 -61 37 C-61.2952194 34.22605167 -61.50712231 31.5299489 -61.625 28.75 C-61.66367187 28.00492187 -61.70234375 27.25984375 -61.7421875 26.4921875 C-61.83605108 24.6618476 -61.91909718 22.83095857 -62 21 C-69.81446461 20.70806664 -76.93415435 21.4519196 -84.5625 23.125 Z " fill="#020202" transform="translate(561,369)"/>
<path d="M0 0 C11.55 0 23.1 0 35 0 C35 89.76 35 179.52 35 272 C-54.76 272 -144.52 272 -237 272 C-237 260.45 -237 248.9 -237 237 C-158.79 237 -80.58 237 0 237 C0 158.79 0 80.58 0 0 Z " fill="#000000" transform="translate(874,637)"/>
<path d="M0 0 C11.55 0 23.1 0 35 0 C35 78.21 35 156.42 35 237 C113.21 237 191.42 237 272 237 C272 248.55 272 260.1 272 272 C182.24 272 92.48 272 0 272 C0 182.24 0 92.48 0 0 Z " fill="#000000" transform="translate(115,637)"/>
<path d="M0 0 C89.76 0 179.52 0 272 0 C272 89.76 272 179.52 272 272 C260.45 272 248.9 272 237 272 C237 193.79 237 115.58 237 35 C158.79 35 80.58 35 0 35 C0 23.45 0 11.9 0 0 Z " fill="#000000" transform="translate(637,115)"/>
<path d="M0 0 C89.76 0 179.52 0 272 0 C272 11.55 272 23.1 272 35 C193.79 35 115.58 35 35 35 C35 113.21 35 191.42 35 272 C23.45 272 11.9 272 0 272 C0 182.24 0 92.48 0 0 Z " fill="#000000" transform="translate(115,115)"/>
<path d="M0 0 C4.47162185 2.27799604 6.87221238 4.48304258 9 9 C9.27004865 11.83717271 9.38037599 14.44653457 9.34057617 17.27856445 C9.34123329 18.50860954 9.34123329 18.50860954 9.34190369 19.76350403 C9.33982003 22.46367518 9.31650916 25.16321907 9.29296875 27.86328125 C9.28737129 29.73943238 9.2831019 31.61558791 9.28010559 33.491745 C9.26866866 38.42213108 9.23921133 43.3522507 9.20599365 48.28253174 C9.17526798 53.31657304 9.16159491 58.35065752 9.14648438 63.38476562 C9.11434057 73.25662728 9.06315808 83.12829146 9 93 C9.94166016 93.30019043 10.88332031 93.60038086 11.85351562 93.90966797 C21.06205781 97.1006479 27.07125752 104.87470066 31.75 113.0625 C36.30467895 123.76599553 35.93917699 133.0493332 32.26953125 143.98046875 C30.46519813 148.27200568 28.12587662 151.5803073 25 155 C24.21625 155.886875 23.4325 156.77375 22.625 157.6875 C13.31054678 165.89308974 4.0821172 168.64047081 -8.28125 168.34375 C-18.63372914 167.38679815 -26.78127782 162.70797738 -33.75 155.0859375 C-41.44030926 145.43459938 -43.88150184 135.19133675 -43 123 C-41.13238605 111.67437782 -34.13121808 102.66782659 -25 96 C-19.77419355 93 -19.77419355 93 -17 93 C-17.00888245 91.96096527 -17.01776489 90.92193054 -17.0269165 89.85140991 C-17.10805553 80.05238816 -17.16799096 70.25343471 -17.20724869 60.45415306 C-17.22811016 55.41639564 -17.25640163 50.37890975 -17.30175781 45.34130859 C-17.34526674 40.47836265 -17.36914795 35.61567763 -17.37950897 30.75255203 C-17.38689127 28.89860553 -17.40130728 27.04467307 -17.42292023 25.19083786 C-17.45202154 22.59094297 -17.45595323 19.99212179 -17.45410156 17.39208984 C-17.47567322 16.24625427 -17.47567322 16.24625427 -17.49768066 15.07727051 C-17.45784495 9.8970954 -16.25539767 6.99585084 -13 3 C-9.05487821 -0.28760149 -4.99255392 -0.88103893 0 0 Z " fill="#030303" transform="translate(516,441)"/>
<path d="M0 0 C10.41430296 7.54199944 16.33719575 18.20890234 19.30859375 30.671875 C20.58457571 43.99511522 17.31443732 56.45854478 9.40625 67.2734375 C2.5982959 75.4232849 -7.22141628 82.85841631 -18.12670898 83.90576172 C-33.47517436 84.66877256 -45.48253231 83.72867461 -57.66015625 73.55859375 C-67.41983161 64.49335683 -72.68460134 55.06645543 -73.98046875 41.6875 C-74.39846614 27.32358955 -70.08857451 15.46682993 -60.69140625 4.671875 C-42.52565531 -10.47902557 -20.30354903 -13.12421409 0 0 Z " fill="#FE3231" transform="translate(267.69140625,183.328125)"/>
<path d="M0 0 C1.23021881 -0.01029488 1.23021881 -0.01029488 2.48529053 -0.02079773 C5.18902025 -0.03905817 7.89216927 -0.03522933 10.59594727 -0.02954102 C12.48015023 -0.03410324 14.36435153 -0.03940893 16.24855042 -0.04542542 C20.19522873 -0.05435507 24.14170468 -0.0519351 28.08837891 -0.04199219 C33.1402678 -0.03050369 38.1914576 -0.05071288 43.24325466 -0.07990932 C47.13381877 -0.09827598 51.0242155 -0.09797792 54.91481209 -0.0922718 C56.77710005 -0.09211864 58.63939939 -0.09815883 60.50164604 -0.11056328 C63.10831128 -0.12548011 65.71368697 -0.11479165 68.3203125 -0.09765625 C69.08569839 -0.10732422 69.85108429 -0.11699219 70.6396637 -0.12695312 C75.815183 -0.05589062 78.71931714 1.17137591 82.72485352 4.40405273 C85.46777725 7.29806972 86.17537721 9.30857952 86.22485352 13.27905273 C86.11904989 16.86579568 85.72790208 19.08078818 83.47485352 21.90405273 C78.62120476 26.3164607 75.01325067 26.70216254 68.56323242 26.69458008 C67.33323265 26.70465591 67.33323265 26.70465591 66.0783844 26.7149353 C63.36933319 26.7339232 60.66052962 26.73783989 57.95141602 26.73999023 C56.06578469 26.74641762 54.18015437 26.75314593 52.29452515 26.76016235 C48.34191577 26.7721371 44.38939381 26.77584297 40.43676758 26.7746582 C35.377035 26.77445501 30.31786404 26.80175715 25.25826454 26.83620262 C21.3634281 26.85846267 17.46872701 26.86249602 13.57383347 26.86143875 C11.7087447 26.86379606 9.84365229 26.87262689 7.97862625 26.88810349 C5.3671077 26.90774547 2.75680264 26.90193284 0.14526367 26.88989258 C-0.62169327 26.90113159 -1.38865021 26.91237061 -2.17884827 26.9239502 C-7.35566828 26.86343743 -10.30141631 25.69451793 -14.27514648 22.40405273 C-17.18551848 18.03849474 -17.92577139 14.60905195 -17.27514648 9.40405273 C-13.22051245 1.59512793 -8.44286816 -0.04952609 0 0 Z " fill="#A3A3A3" transform="translate(477.275146484375,207.595947265625)"/>
<path d="M0 0 C5.09498049 4.32145106 7.28952605 8.79564262 8.125 15.375 C7.7421472 21.87073579 4.91577786 27.42694173 0.375 32 C-0.5325 32.804375 -1.44 33.60875 -2.375 34.4375 C-6.44287327 32.86560518 -8.88089396 29.94577574 -11.6875 26.75 C-12.66556211 25.66046578 -13.64472619 24.57191975 -14.625 23.484375 C-15.09679687 22.95908203 -15.56859375 22.43378906 -16.0546875 21.89257812 C-20.49956509 16.9940074 -25.22596338 12.58184655 -30.375 8.4375 C-28.4398965 3.21272055 -23.85045126 0.42113417 -19.375 -2.5625 C-12.89384667 -4.72288444 -5.59973516 -3.85178045 0 0 Z " fill="#707070" transform="translate(720.375,357.5625)"/>
<path d="M0 0 C3.60003622 1.9102233 5.74840078 4.62260117 8 8 C8.49496359 13.24661407 7.7511969 16.51656801 5 21 C2.65360005 23.83523327 0.65281648 24.77962447 -3.05078125 25.2734375 C-7.22372499 25.46082357 -10.09495374 25.43391645 -13.4375 22.75 C-17.39563488 18.5022455 -18.47626222 16.00189661 -18.3203125 10.03125 C-17.78643864 6.64570842 -16.19273902 4.55819552 -14 2 C-9.58675009 -0.73245899 -5.03935239 -0.79485054 0 0 Z " fill="#F9F9F9" transform="translate(517,558)"/>
</svg>
